<svg xmlns="http://www.w3.org/2000/svg" viewBox="0 0 640 420" width="640" height="420" font-family="-apple-system, sans-serif" font-size="12">
<rect width="640" height="420" fill="white" />
<text x="320.0" y="24.0" text-anchor="middle" fill="#222" font-size="15">Per-epoch ASP processing latency vs cohort size K</text>
<line x1="70.0" y1="50.0" x2="70.0" y2="360.0" stroke="#222" stroke-width="1.0" stroke-linecap="round" />
<line x1="70.0" y1="360.0" x2="610.0" y2="360.0" stroke="#222" stroke-width="1.0" stroke-linecap="round" />
<line x1="94.5" y1="360.0" x2="94.5" y2="365.0" stroke="#888" stroke-width="1.0" stroke-linecap="round" />
<text x="94.5" y="378.0" text-anchor="middle" fill="#222" font-size="11">100</text>
<line x1="585.5" y1="360.0" x2="585.5" y2="365.0" stroke="#888" stroke-width="1.0" stroke-linecap="round" />
<text x="585.5" y="378.0" text-anchor="middle" fill="#222" font-size="11">1.0K</text>
<line x1="65.0" y1="360.0" x2="70.0" y2="360.0" stroke="#888" stroke-width="1.0" stroke-linecap="round" />
<text x="62.0" y="364.0" text-anchor="end" fill="#222" font-size="11">0</text>
<line x1="70.0" y1="360.0" x2="610.0" y2="360.0" stroke="#eee" stroke-width="1.0" stroke-linecap="round" />
<line x1="65.0" y1="298.0" x2="70.0" y2="298.0" stroke="#888" stroke-width="1.0" stroke-linecap="round" />
<text x="62.0" y="302.0" text-anchor="end" fill="#222" font-size="11">52.2</text>
<line x1="70.0" y1="298.0" x2="610.0" y2="298.0" stroke="#eee" stroke-width="1.0" stroke-linecap="round" />
<line x1="65.0" y1="236.0" x2="70.0" y2="236.0" stroke="#888" stroke-width="1.0" stroke-linecap="round" />
<text x="62.0" y="240.0" text-anchor="end" fill="#222" font-size="11">104.3</text>
<line x1="70.0" y1="236.0" x2="610.0" y2="236.0" stroke="#eee" stroke-width="1.0" stroke-linecap="round" />
<line x1="65.0" y1="174.0" x2="70.0" y2="174.0" stroke="#888" stroke-width="1.0" stroke-linecap="round" />
<text x="62.0" y="178.0" text-anchor="end" fill="#222" font-size="11">156.5</text>
<line x1="70.0" y1="174.0" x2="610.0" y2="174.0" stroke="#eee" stroke-width="1.0" stroke-linecap="round" />
<line x1="65.0" y1="112.0" x2="70.0" y2="112.0" stroke="#888" stroke-width="1.0" stroke-linecap="round" />
<text x="62.0" y="116.0" text-anchor="end" fill="#222" font-size="11">208.7</text>
<line x1="70.0" y1="112.0" x2="610.0" y2="112.0" stroke="#eee" stroke-width="1.0" stroke-linecap="round" />
<line x1="65.0" y1="50.0" x2="70.0" y2="50.0" stroke="#888" stroke-width="1.0" stroke-linecap="round" />
<text x="62.0" y="54.0" text-anchor="end" fill="#222" font-size="11">260.8</text>
<line x1="70.0" y1="50.0" x2="610.0" y2="50.0" stroke="#eee" stroke-width="1.0" stroke-linecap="round" />
<text x="340.0" y="402.0" text-anchor="middle" fill="#222" font-size="13">Cohort size K (log scale)</text>
<text x="18" y="205.0" text-anchor="middle" font-size="13" transform="rotate(-90 18 205.0)">process_epoch latency (ms)</text>
<polyline points="94.5,332.8 585.5,90.4" fill="none" stroke="#1f77b4" stroke-width="2" stroke-linejoin="round" />
<circle cx="94.5" cy="332.8" r="4" fill="#1f77b4" />
<circle cx="585.5" cy="90.4" r="4" fill="#1f77b4" />
<circle cx="585.5" cy="90.4" r="6" fill="#d62728" />
<text x="595.5" y="82.4" text-anchor="start" fill="#d62728" font-size="11">★ lead row</text>
</svg>